<?xml version="1.0" standalone="no"?>
<!DOCTYPE svg PUBLIC "-//W3C//DTD SVG 1.1//EN" "http://www.w3.org/Graphics/SVG/1.1/DTD/svg11.dtd">
<svg xmlns="http://www.w3.org/2000/svg">
<metadata>Generated by Fontastic.me</metadata>
<defs>
<font id="precheckin" horiz-adv-x="512">
<font-face font-family="precheckin" units-per-em="512" ascent="480" descent="-32"/>
<missing-glyph horiz-adv-x="512" />

<glyph glyph-name="box" unicode="&#97;" d="M437 0l-362 0c-41 0-75 34-75 75l0 362c0 41 34 75 75 75l362 0c41 0 75-34 75-75l0-362c0-41-34-75-75-75z m-362 482c-24 0-45-21-45-45l0-362c0-24 21-45 45-45l362 0c24 0 45 21 45 45l0 362c0 24-21 45-45 45z"/>
<glyph glyph-name="checkbox" unicode="&#98;" d="M448 512l-384 0c-35 0-64-29-64-64l0-384c0-35 29-64 64-64l384 0c35 0 64 29 64 64l0 384c0 35-29 64-64 64z m-56-171l-179-198c-1-2-4-4-6-5 0 0 0 0-1 0l-1 0c-5-1-11 0-14 4l-71 79c-5 6-5 15 1 21 6 5 16 5 21-1l60-66 168 186c6 7 15 7 21 2 6-6 7-16 1-22z"/>
<glyph glyph-name="apartment" unicode="&#99;" d="M358 358l26 0 0-25-26 0z m0-51l26 0 0-25-26 0z m0-51l26 0 0-26-26 0z m0-51l26 0 0-26-26 0z m0-103l26 0 0-25-26 0z m0 52l26 0 0-26-26 0z m-204 204l25 0 0-25-25 0z m0-51l25 0 0-25-25 0z m0-51l25 0 0-26-25 0z m0-51l25 0 0-26-25 0z m0-103l25 0 0-25-25 0z m0 52l25 0 0-26-25 0z m-52 204l26 0 0-25-26 0z m0-51l26 0 0-25-26 0z m0-51l26 0 0-26-26 0z m0-51l26 0 0-26-26 0z m0-103l26 0 0-25-26 0z m0 52l26 0 0-26-26 0z m103 204l25 0 0-25-25 0z m0-51l25 0 0-25-25 0z m0-51l25 0 0-26-25 0z m0-51l25 0 0-26-25 0z m0-103l25 0 0-25-25 0z m0 52l25 0 0-26-25 0z m269-128l-13 0 0 345c0 20-15 40-33 46l-121 40 0 42c0 4-2 8-5 10-3 3-7 4-11 2l-232-69c-19-6-33-25-33-45l0-371-13 0c-7 0-13-6-13-13 0-7 6-13 13-13l461 0c7 0 12 6 12 13 0 7-5 13-12 13z m-54 367c8-3 15-13 15-22l0-345-128 0 0 404z m-369 4c0 8 8 18 16 20l215 65 0-456-231 0z"/>
<glyph glyph-name="arrow-right" unicode="&#100;" d="M495 252l-153 154c-5 5-13 5-18 0-5-5-5-13 0-18l132-132-418 0c-7 0-12-6-12-13 0-7 5-13 12-13l418 0-132-131c-5-5-5-13 0-18 2-3 6-4 9-4 3 0 6 1 9 4l153 153c5 5 5 13 0 18z"/>
<glyph glyph-name="camera" unicode="&#101;" d="M243 128c-63 0-115 52-115 115 0 64 52 115 115 115 64 0 115-51 115-115 0-63-51-115-115-115z m0 205c-49 0-89-40-89-90 0-49 40-89 89-89 50 0 90 40 90 89 0 50-40 90-90 90z m205-282l-410 0c-21 0-38 17-38 39l0 256c0 21 17 38 38 38l39 0c10 0 27 7 34 14l15 15c13 13 36 22 53 22l128 0c18 0 41-9 53-22l15-15c7-7 24-14 35-14l38 0c21 0 38-17 38-38l0-256c0-22-17-39-38-39z m-410 307c-7 0-12-5-12-12l0-256c0-7 5-13 12-13l410 0c7 0 13 6 13 13l0 256c0 7-6 12-13 12l-38 0c-18 0-41 10-53 22l-15 15c-8 8-24 15-35 15l-128 0c-10 0-27-7-34-15l-15-15c-13-12-36-22-53-22l-39 0z"/>
<glyph glyph-name="calendar-full" unicode="&#102;" d="M474 461l-64 0 0 13c0 7-6 12-13 12-7 0-13-5-13-12l0-13-256 0 0 13c0 7-6 12-13 12-7 0-13-5-13-12l0-13-64 0c-21 0-38-17-38-39l0-358c0-21 17-38 38-38l436 0c21 0 38 17 38 38l0 358c0 22-17 39-38 39z m-436-26l64 0 0-38c0-7 6-13 13-13 7 0 13 6 13 13l0 38 256 0 0-38c0-7 6-13 13-13 7 0 13 6 13 13l0 38 64 0c7 0 12-6 12-13l0-64-460 0 0 64c0 7 5 13 12 13z m436-384l-436 0c-7 0-12 6-12 13l0 269 460 0 0-269c0-7-5-13-12-13z m-282 205l-26 0c-7 0-12 6-12 13 0 7 5 13 12 13l26 0c7 0 13-6 13-13 0-7-6-13-13-13z m77 0l-26 0c-7 0-13 6-13 13 0 7 6 13 13 13l26 0c7 0 13-6 13-13 0-7-6-13-13-13z m77 0l-26 0c-7 0-13 6-13 13 0 7 6 13 13 13l26 0c7 0 12-6 12-13 0-7-5-13-12-13z m76 0l-25 0c-7 0-13 6-13 13 0 7 6 13 13 13l25 0c7 0 13-6 13-13 0-7-6-13-13-13z m-307-51l-25 0c-7 0-13 6-13 13 0 7 6 12 13 12l25 0c7 0 13-5 13-12 0-7-6-13-13-13z m77 0l-26 0c-7 0-12 6-12 13 0 7 5 12 12 12l26 0c7 0 13-5 13-12 0-7-6-13-13-13z m77 0l-26 0c-7 0-13 6-13 13 0 7 6 12 13 12l26 0c7 0 13-5 13-12 0-7-6-13-13-13z m77 0l-26 0c-7 0-13 6-13 13 0 7 6 12 13 12l26 0c7 0 12-5 12-12 0-7-5-13-12-13z m76 0l-25 0c-7 0-13 6-13 13 0 7 6 12 13 12l25 0c7 0 13-5 13-12 0-7-6-13-13-13z m-307-51l-25 0c-7 0-13 5-13 12 0 7 6 13 13 13l25 0c7 0 13-6 13-13 0-7-6-12-13-12z m77 0l-26 0c-7 0-12 5-12 12 0 7 5 13 12 13l26 0c7 0 13-6 13-13 0-7-6-12-13-12z m77 0l-26 0c-7 0-13 5-13 12 0 7 6 13 13 13l26 0c7 0 13-6 13-13 0-7-6-12-13-12z m77 0l-26 0c-7 0-13 5-13 12 0 7 6 13 13 13l26 0c7 0 12-6 12-13 0-7-5-12-12-12z m76 0l-25 0c-7 0-13 5-13 12 0 7 6 13 13 13l25 0c7 0 13-6 13-13 0-7-6-12-13-12z m-307-52l-25 0c-7 0-13 6-13 13 0 7 6 13 13 13l25 0c7 0 13-6 13-13 0-7-6-13-13-13z m77 0l-26 0c-7 0-12 6-12 13 0 7 5 13 12 13l26 0c7 0 13-6 13-13 0-7-6-13-13-13z m77 0l-26 0c-7 0-13 6-13 13 0 7 6 13 13 13l26 0c7 0 13-6 13-13 0-7-6-13-13-13z m77 0l-26 0c-7 0-13 6-13 13 0 7 6 13 13 13l26 0c7 0 12-6 12-13 0-7-5-13-12-13z m76 0l-25 0c-7 0-13 6-13 13 0 7 6 13 13 13l25 0c7 0 13-6 13-13 0-7-6-13-13-13z"/>
<glyph glyph-name="checkmark-circle" unicode="&#103;" d="M243 0c-65 0-126 25-172 71-46 46-71 107-71 172 0 65 25 126 71 172 46 46 107 71 172 71 65 0 126-25 172-71 46-46 71-107 71-172 0-65-25-126-71-172-46-46-107-71-172-71z m0 461c-120 0-217-98-217-218 0-120 97-217 217-217 120 0 218 97 218 217 0 120-98 218-218 218z m-51-320c-3 0-7 1-9 4l-77 76c-5 5-5 13 0 18 5 5 13 5 18 0l68-67 170 170c5 5 13 5 18 0 5-5 5-13 0-18l-179-179c-2-3-6-4-9-4z"/>
<glyph glyph-name="flag" unicode="&#104;" d="M38 26c-7 0-12 5-12 12l0 384c0 7 5 13 12 13 7 0 13-6 13-13l0-384c0-7-6-12-13-12z m52 230c-3 0-6 1-8 3-6 4-7 12-3 17 2 3 43 57 100 57 44 0 72-16 98-29 22-12 41-22 69-22 56 0 96 53 119 95-18-10-41-19-68-19-57 0-86 30-112 55-25 26-47 48-93 48-57 0-92-46-92-46-4-6-12-7-18-3-6 4-7 12-3 18 2 2 43 56 113 56 57 0 86-29 111-55 26-25 48-47 94-47 57 0 92 46 92 46 4 5 11 7 16 4 6-3 8-10 6-16 0-1-13-40-40-79-15-24-32-43-51-56-23-18-48-27-74-27-34 0-58 13-82 25-24 14-48 26-85 26-44 0-79-45-79-46-3-3-7-5-10-5z"/>
<glyph glyph-name="users" unicode="&#105;" d="M474 51l-282 0c-21 0-38 17-38 39 0 1 0 30 23 59 14 16 32 30 55 39 27 11 61 17 101 17 39 0 73-6 101-17 23-9 41-23 54-39 24-29 24-58 24-59 0-22-17-39-38-39z m-295 39c0-8 6-13 13-13l282 0c7 0 12 6 12 13 0 0 0 22-19 44-24 30-71 45-134 45-63 0-110-15-135-45-18-22-19-44-19-44z m154 140c-57 0-103 46-103 103 0 56 46 102 103 102 56 0 102-46 102-102 0-57-46-103-102-103z m0 180c-43 0-77-35-77-77 0-43 34-77 77-77 42 0 77 34 77 77 0 42-35 77-77 77z m-218-359l-77 0c-21 0-38 17-38 39 0 1 0 23 17 46 10 13 23 23 39 30 20 9 44 13 72 13 5 0 9 0 14 0 7-1 12-7 12-14-1-7-7-12-14-12-4 0-8 1-12 1-100 0-102-61-102-65 0-7 5-12 12-12l77 0c7 0 13-6 13-13 0-7-6-13-13-13z m13 154c-42 0-77 34-77 77 0 42 35 76 77 76 42 0 77-34 77-76 0-43-35-77-77-77z m0 128c-28 0-51-23-51-51 0-29 23-52 51-52 28 0 51 23 51 52 0 28-23 51-51 51z"/>
<glyph glyph-name="paperclip" unicode="&#106;" d="M243 0c-63 0-115 52-115 115l0 307c0 50 40 90 90 90 49 0 89-40 89-90l0-281c0-35-29-64-64-64-35 0-64 29-64 64l0 153c0 7 6 13 13 13 7 0 13-6 13-13l0-153c0-21 17-39 38-39 21 0 39 18 39 39l0 281c0 36-29 64-64 64-36 0-64-28-64-64l0-307c0-49 40-89 89-89 50 0 90 40 90 89l0 179c0 7 6 13 13 13 7 0 12-6 12-13l0-179c0-63-51-115-115-115z"/>
<glyph glyph-name="cross" unicode="&#107;" d="M274 243l145 145c5 5 5 13 0 18-5 5-13 5-18 0l-145-145-145 145c-5 5-13 5-18 0-5-5-5-13 0-18l145-145-145-144c-5-5-5-13 0-18 3-3 6-4 9-4 4 0 7 1 9 4l145 144 145-144c2-3 5-4 9-4 3 0 6 1 9 4 5 5 5 13 0 18l-145 144z"/>
<glyph glyph-name="question-circle" unicode="&#108;" d="M415 415c-46 46-107 71-172 71-65 0-126-25-172-71-46-46-71-107-71-172 0-65 25-126 71-172 46-46 107-71 172-71 65 0 126 25 172 71 46 46 71 107 71 172 0 65-25 126-71 172z m-172-389c-120 0-217 97-217 217 0 120 97 218 217 218 120 0 218-98 218-218 0-120-98-217-218-217z m0 102c-7 0-13 6-13 13l0 51c0 7 6 13 13 13 50 0 90 40 90 89 0 50-40 90-90 90-49 0-89-40-89-90 0-7-6-12-13-12-7 0-13 5-13 12 0 64 52 116 115 116 64 0 115-52 115-116 0-59-44-108-102-114l0-39c0-7-6-13-13-13z m0-77c-7 0-13 6-13 13l0 26c0 7 6 12 13 12 7 0 13-5 13-12l0-26c0-7-6-13-13-13z"/>
<glyph glyph-name="arrow-left" unicode="&#109;" d="M17 252l153 154c5 5 13 5 18 0 5-5 5-13 0-18l-131-132 417 0c7 0 12-6 12-13 0-7-5-13-12-13l-417 0 131-131c5-5 5-13 0-18-2-3-6-4-9-4-3 0-6 1-9 4l-153 153c-5 5-5 13 0 18z"/>
<glyph glyph-name="picture" unicode="&#110;" d="M474 0l-436 0c-21 0-38 17-38 38l0 436c0 21 17 38 38 38l436 0c21 0 38-17 38-38l0-436c0-21-17-38-38-38z m-436 486c-7 0-12-5-12-12l0-436c0-7 5-12 12-12l436 0c7 0 12 5 12 12l0 436c0 7-5 12-12 12z m295-204c-28 0-51 23-51 51 0 28 23 51 51 51 28 0 51-23 51-51 0-28-23-51-51-51z m0 76c-14 0-26-11-26-25 0-14 12-26 26-26 14 0 25 12 25 26 0 14-11 25-25 25z m115 103l-384 0c-7 0-13-6-13-13l0-307c0-7 6-13 13-13l384 0c7 0 13 6 13 13l0 307c0 7-6 13-13 13z m-371-248l82 92c2 3 5 4 8 4 3 0 5-1 7-4l142-151-239 0z m358-59l-84 0-158 169c-7 7-16 12-27 11-10 0-19-4-26-12l-63-71 0 184 358 0z"/>
<glyph glyph-name="warning" unicode="&#111;" d="M474 26l-461 0c-5 0-9 2-11 6-3 4-3 9 0 13l230 409c2 4 7 7 11 7 5 0 9-3 11-7l231-409c2-4 2-9 0-13-3-4-7-6-11-6z m-439 25l417 0-209 371z m208 103c-7 0-13 5-13 12l0 128c0 7 6 13 13 13 7 0 13-6 13-13l0-128c0-7-6-12-13-12z m0-77c-7 0-13 6-13 13l0 25c0 7 6 13 13 13 7 0 13-6 13-13l0-25c0-7-6-13-13-13z"/>
<glyph glyph-name="id-card" unicode="&#112;" d="M469 455l-426 0c-24 0-43-19-43-43l0-312c0-24 19-43 43-43l426 0c24 0 43 19 43 43l0 312c0 24-19 43-43 43z m0-355l-199 0c0 4 0-4 0 19 0 29-27 52-60 52-9 0-16-7-39-7-24 0-30 7-40 7-33 0-60-23-60-52 0-23 0-15 1-19l-29 0 0 256 426 0z m-149 71l100 0c3 0 7 3 7 7l0 14c0 4-4 7-7 7l-100 0c-4 0-7-3-7-7l0-14c0-4 3-7 7-7z m0 57l100 0c3 0 7 3 7 7l0 14c0 4-4 7-7 7l-100 0c-4 0-7-3-7-7l0-14c0-4 3-7 7-7z m0 56l100 0c3 0 7 4 7 8l0 14c0 4-4 7-7 7l-100 0c-4 0-7-3-7-7l0-14c0-4 3-8 7-8z m-149-85c31 0 57 26 57 57 0 31-26 57-57 57-32 0-57-26-57-57 0-31 25-57 57-57z"/>
<glyph glyph-name="icono-oasis" unicode="&#113;" d="M298 322c0 6 0 10-2 14-14 45-68 12-88 45-16 27 4 47 8 49 0-10 2-22 12-33 22-16 58-2 76-26 8-9 16-29-6-49z m48 81c0 7 0 11-2 15-14 45-68 12-88 45-16 26 4 47 8 49 0-10 2-23 12-33 22-16 58-2 76-26 6-7 14-29-6-50z m-24-41c0 7 0 11-2 15-14 45-68 12-88 45-16 27 4 47 8 49 0-10 2-22 12-33 22-16 58-2 76-26 8-9 16-29-6-50z m-134-106c-4-2-8-4-12-8-32-35 22-66 6-101-16-26-40-20-46-18 8 4 18 12 22 29 4 26-28 51-14 80 2 10 16 26 44 18z m-93 0c-4-2-8-4-12-8-32-35 22-66 6-101-16-26-42-20-46-18 8 4 18 12 22 29 4 26-28 51-14 80 4 10 18 26 44 18z m47 0c-4-2-8-4-12-8-31-35 22-66 6-101-16-26-39-20-45-18 8 4 18 12 22 29 4 26-28 51-14 80 2 10 16 26 43 18z m82-66c0-6 0-10 2-14 14-45 68-12 88-45 16-27-4-47-8-49 0 10-2 22-12 33-22 16-58 2-76 26-6 9-14 29 6 49z m-46-81c0-7 0-11 2-15 14-45 68-12 88-45 16-26-4-47-8-49 0 10-2 23-12 33-22 16-58 2-76 26-8 9-14 29 6 50z m24 41c0-7 0-11 2-15 14-45 68-12 88-45 16-27-4-47-8-49 0 10-2 22-12 33-22 16-58 2-76 26-8 9-16 29 6 50z m96 40c4-2 8-4 12-6 46-10 44 54 82 56 30 0 38-27 38-33-8 6-20 10-34 4-26-10-30-51-60-53-8 0-32 4-38 32z m48-81c4-3 8-5 12-7 46-10 44 54 82 56 30 0 38-27 38-33-8 6-20 10-34 4-26-10-30-51-60-53-10 0-32 4-38 33z m-24 41c4-3 8-5 12-7 46-10 44 54 82 56 30 0 38-27 38-33-8 6-20 10-34 4-26-10-30-51-60-53-10 0-32 4-38 33z m14 106c4 2 8 4 12 8 32 35-22 66-6 101 16 26 40 20 46 18-8-4-18-12-22-29-4-26 28-51 14-80-2-10-16-26-44-18z m92 0c4 2 8 4 12 8 32 35-22 66-6 101 16 26 40 20 46 18-8-4-18-12-22-29-4-26 28-51 14-80-2-10-16-26-44-18z m-46 0c4 2 8 4 12 8 32 35-22 66-6 101 16 26 40 20 46 18-8-4-18-12-22-29-4-26 28-51 14-80-2-10-16-26-44-18z m-158 66c-4 2-8 4-12 6-46 10-44-54-82-56-31 0-37 27-37 33 8-6 20-10 33-4 26 10 30 51 60 53 10 0 32-4 38-32z m-46 81c-4 3-8 5-12 7-46 10-44-54-81-56-30 0-38 27-38 33 8-6 20-10 34-4 26 10 30 51 59 53 10 0 32-4 38-33z m24-41c-4 5-8 5-12 7-46 10-44-54-81-56-30 0-38 27-38 33 8-6 20-10 34-4 25 10 29 51 59 53 10 0 32-4 38-33z"/>
<glyph glyph-name="exit" unicode="&#114;" d="M294 307c7 0 13 6 13 13l0 102c0 22-17 39-38 39l-231 0c-21 0-38-17-38-39l0-307c0-19 14-40 31-47l132-57c5-2 10-3 14-3 6 0 11 2 15 5 8 5 13 14 13 25l0 39 64 0c21 0 38 17 38 38l0 103c0 7-6 12-13 12-7 0-12-5-12-12l0-103c0-7-6-13-13-13l-64 0 0 244c0 19-14 40-31 47l-99 42 194 0c7 0 13-6 13-13l0-102c0-7 5-13 12-13z m-131 63c9-4 16-15 16-24l0-308c0-2-1-4-1-4 0 0-2 0-4 1l-133 56c-8 4-15 15-15 24l0 307c0 2 0 4 1 6z m307-92l-77 77c-5 5-13 5-18 0-5-5-5-13 0-18l55-55-161 0c-7 0-13-6-13-13 0-7 6-13 13-13l161 0-55-55c-5-5-5-13 0-18 2-3 6-4 9-4 3 0 7 2 9 4l77 77c5 5 5 13 0 18z"/>
<glyph glyph-name="file-add" unicode="&#115;" d="M457 367l-115 116c-3 2-6 3-9 3l-243 0c-22 0-39-17-39-38l0-410c0-21 17-38 39-38l332 0c22 0 39 17 39 38l0 320c0 4-2 7-4 9z m-27-9l-84 0c-7 0-13 6-13 13l0 84z m-8-332l-332 0c-7 0-13 5-13 12l0 410c0 7 6 13 13 13l217 0 0-90c0-21 17-38 39-38l89 0 0-295c0-7-6-12-13-12z m-128 153l-64 0 0 64c0 7-5 13-12 13-7 0-13-6-13-13l0-64-64 0c-7 0-13-6-13-13 0-7 6-12 13-12l64 0 0-64c0-7 6-13 13-13 7 0 12 6 12 13l0 64 64 0c7 0 13 5 13 12 0 7-6 13-13 13z"/>
<glyph glyph-name="plus-circle" unicode="&#116;" d="M415 415c-46 46-107 71-172 71-65 0-126-25-172-71-46-46-71-107-71-172 0-65 25-126 71-172 46-46 107-71 172-71 65 0 126 25 172 71 46 46 71 107 71 172 0 65-25 126-71 172z m-172-389c-120 0-217 97-217 217 0 120 97 218 217 218 120 0 218-98 218-218 0-120-98-217-218-217z m154 230l-141 0 0 141c0 7-6 13-13 13-7 0-13-6-13-13l0-141-140 0c-7 0-13-6-13-13 0-7 6-13 13-13l140 0 0-140c0-7 6-13 13-13 7 0 13 6 13 13l0 140 141 0c7 0 13 6 13 13 0 7-6 13-13 13z"/>
<glyph glyph-name="trash" unicode="&#117;" d="M397 461l-90 0 0 13c0 21-17 38-38 38l-51 0c-22 0-39-17-39-38l0-13-89 0c-22 0-39-17-39-39l0-25c0-17 11-31 26-36l0-323c0-21 17-38 38-38l256 0c21 0 39 17 39 38l0 323c15 5 25 19 25 36l0 25c0 22-17 39-38 39z m-192 13c0 7 6 12 13 12l51 0c7 0 13-5 13-12l0-13-77 0z m166-448l-256 0c-7 0-13 5-13 12l0 320 282 0 0-320c0-7-6-12-13-12z m39 371c0-7-6-13-13-13l-307 0c-7 0-13 6-13 13l0 25c0 7 6 13 13 13l307 0c7 0 13-6 13-13z m-90-64c-7 0-13-6-13-13l0-256c0-7 6-13 13-13 7 0 13 6 13 13l0 256c0 7-6 13-13 13z m-77 0c-7 0-13-6-13-13l0-256c0-7 6-13 13-13 7 0 13 6 13 13l0 256c0 7-6 13-13 13z m-77 0c-7 0-12-6-12-13l0-256c0-7 5-13 12-13 7 0 13 6 13 13l0 256c0 7-6 13-13 13z"/>
<glyph glyph-name="user" unicode="&#118;" d="M243 230c-77 0-141 64-141 141 0 78 64 141 141 141 78 0 141-63 141-141 0-77-63-141-141-141z m0 256c-63 0-115-51-115-115 0-63 52-115 115-115 64 0 115 52 115 115 0 64-51 115-115 115z m205-486l-410 0c-21 0-38 17-38 38 0 2 0 44 31 85 18 24 43 43 74 57 37 16 84 25 138 25 55 0 101-9 139-25 30-14 55-33 73-57 31-41 31-83 31-85 0-21-17-38-38-38z m-205 179c-89 0-155-24-190-70-27-35-27-70-27-71 0-7 5-12 12-12l410 0c7 0 13 5 13 12 0 1-1 36-27 71-36 46-102 70-191 70z"/>
<glyph glyph-name="cloud-upload" unicode="&#119;" d="M410 102l-90 0c-7 0-13 6-13 13 0 7 6 13 13 13l90 0c42 0 76 34 76 77 0 42-34 76-76 76-9 0-18-1-26-4-6-2-12 0-16 5-3 5-2 11 2 16 9 9 14 22 14 35 0 28-23 51-51 51-17 0-32-8-41-21-6-8-10-17-10-27-1-5-4-10-10-12-5-1-10 1-14 5l0 1c-2 4-5 7-9 11-24 27-59 43-95 43-71 0-128-57-128-128 0-71 57-128 128-128l64 0c7 0 12-6 12-13 0-7-5-13-12-13l-64 0c-85 0-154 69-154 154 0 85 69 154 154 154 41 0 80-17 109-46 2 5 5 10 8 14 14 20 38 32 62 32 42 0 77-35 77-77 0-9-2-18-5-26 2 0 3 0 5 0 56 0 102-46 102-102 0-57-46-103-102-103z m-81 99l-51 51c-5 5-13 5-18 0l-51-51c-5-5-5-13 0-18 5-5 13-5 18 0l29 29 0-97c0-7 6-13 13-13 7 0 13 6 13 13l0 97 29-29c2-3 6-4 9-4 3 0 7 1 9 4 5 5 5 13 0 18z"/>
</font>
</defs>
</svg>
